G04 DipTrace 3.2.0.1*
G04 Bottom.gbr*
%MOIN*%
G04 #@! TF.FileFunction,Copper,L2,Bot*
G04 #@! TF.Part,Single*
%AMOUTLINE0*
4,1,4,
0.0,-0.044542,
-0.044542,0.0,
0.0,0.044542,
0.044542,0.0,
0.0,-0.044542,
0*%
%AMOUTLINE3*
4,1,8,
-0.029528,0.019685,
-0.03937,0.009843,
-0.03937,-0.009843,
-0.029528,-0.019685,
0.029528,-0.019685,
0.03937,-0.009843,
0.03937,0.009843,
0.029528,0.019685,
-0.029528,0.019685,
0*%
%AMOUTLINE6*
4,1,4,
0.029528,-0.025591,
-0.029528,-0.025591,
-0.029528,0.025591,
0.029528,0.025591,
0.029528,-0.025591,
0*%
%AMOUTLINE9*
4,1,4,
-0.002783,0.038974,
0.038974,-0.002783,
0.002783,-0.038974,
-0.038974,0.002783,
-0.002783,0.038974,
0*%
G04 #@! TA.AperFunction,Conductor*
%ADD13C,0.02755*%
%ADD14C,0.04*%
%ADD15C,0.045*%
%ADD16C,0.027*%
%ADD17C,0.01855*%
%ADD18C,0.035*%
G04 #@! TA.AperFunction,CopperBalancing*
%ADD19C,0.025*%
%ADD20C,0.025992*%
%ADD21C,0.02*%
%ADD22C,0.01*%
G04 #@! TA.AperFunction,ComponentPad*
%ADD23R,0.062992X0.062992*%
%ADD24C,0.062992*%
%ADD25R,0.090551X0.090551*%
%ADD26C,0.090551*%
%ADD27C,0.059055*%
%ADD28R,0.059055X0.059055*%
%ADD29O,0.07874X0.177165*%
%ADD30O,0.07874X0.19685*%
%ADD31O,0.177165X0.07874*%
%ADD32C,0.062992*%
%ADD33R,0.074803X0.074803*%
%ADD34C,0.074803*%
%ADD35O,0.07874X0.03937*%
%ADD36R,0.051181X0.059055*%
%ADD37R,0.059055X0.051181*%
G04 #@! TA.AperFunction,ComponentPad*
%ADD38R,0.066929X0.066929*%
%ADD39C,0.066929*%
%ADD40R,0.066929X0.035433*%
%ADD41R,0.035433X0.066929*%
G04 #@! TA.AperFunction,ComponentPad*
%ADD42R,0.070866X0.055118*%
%ADD43O,0.070866X0.055118*%
G04 #@! TA.AperFunction,ViaPad*
%ADD44C,0.07*%
G04 #@! TA.AperFunction,ComponentPad*
%ADD86OUTLINE0*%
%ADD89OUTLINE3*%
%ADD92OUTLINE6*%
%ADD95OUTLINE9*%
%FSLAX26Y26*%
G04*
G70*
G90*
G75*
G01*
G04 Bottom*
%LPD*%
X2627740Y1993701D2*
D13*
X2718701D1*
X2893504Y1818898D1*
Y1693701D1*
X2318701Y693701D2*
Y718701D1*
X2368701Y768701D1*
X2722990D1*
X2733345Y779056D1*
Y783345D1*
X2893701Y943701D1*
Y1693504D1*
X2893504Y1693701D1*
X2627740Y2043701D2*
X2793701D1*
X1693701Y1868701D2*
X1618701D1*
Y2043701D1*
X1918701Y2043488D2*
X1768913D1*
X2593701Y1018701D2*
Y1219079D1*
X2498409Y1314370D1*
X1568701Y593701D2*
Y693701D1*
X1818701Y943701D1*
X1993701D1*
X2293701D1*
X2593701D1*
Y1018701D1*
X2293701D2*
Y943701D1*
X2418701Y693701D2*
D14*
Y593701D1*
X1993701Y1018701D2*
D13*
Y943701D1*
X768701Y1612992D2*
D15*
X668701D1*
D16*
Y1593701D1*
X768701Y1478346D2*
D15*
X684055D1*
D16*
X668701Y1493701D1*
X993701Y818701D2*
D14*
Y668701D1*
X2048701Y1314488D2*
D13*
Y1273898D1*
X1968504Y1193701D1*
X1918701Y1393488D2*
X2518913D1*
X2593701Y1318701D1*
X2689961D1*
X2737795Y1366535D1*
X2443898Y1168701D2*
D16*
Y1309685D1*
X2448701Y1314488D1*
X1693701Y1968701D2*
D13*
X1743701D1*
X1818913Y1893488D1*
X1918701D1*
X1693701Y1768701D2*
X1768701Y1843701D1*
X1918488D1*
X1918701Y1843488D1*
X1468701Y1518701D2*
X1768701D1*
X1843488Y1593488D1*
X1918701D1*
X1368701Y1618701D2*
X1418701Y1568701D1*
D17*
X1543701D1*
D13*
X1743701D1*
X1818488Y1643488D1*
X1918701D1*
X1368701Y1518701D2*
X1418701Y1468701D1*
D17*
X1543701D1*
D13*
X1793701D1*
X1868488Y1543488D1*
X1918701D1*
X1468701Y1918701D2*
X1618701Y1768701D1*
Y1718701D1*
X1643701Y1693701D1*
X1718701D1*
X1818488Y1793488D1*
X1918701D1*
X1468701Y1618701D2*
X1718701D1*
X1793488Y1693488D1*
X1918701D1*
Y1443488D2*
X1843488D1*
X1718701Y1318701D1*
Y1243699D1*
X2627740Y1943701D2*
X2693701D1*
X2818701Y1818701D1*
Y1693701D1*
Y1249606D1*
X2737795Y1168701D1*
X754921Y693701D2*
D18*
Y907480D1*
X618701Y1043701D1*
X768701Y1193701D1*
Y1343701D1*
X1143701Y793701D2*
Y918701D1*
X754921D1*
Y693701D1*
X1143701Y793701D2*
X1218701D1*
X1418701Y993701D1*
Y1268701D1*
X1468701Y1318701D1*
X768701Y1411024D2*
D14*
X536024D1*
X518701Y1393701D1*
X768701Y1411024D2*
X1001378D1*
X1068701Y1343701D1*
X1693701Y693701D2*
X1893701D1*
X2218701D1*
D13*
D3*
X768701Y1545669D2*
D14*
X1063583D1*
X1068701Y1540551D1*
X993701Y1018701D2*
Y1118701D1*
X1168701Y1293701D1*
Y1440551D1*
X1068701Y1540551D1*
X993701Y1018701D2*
X1168701D1*
X1243701Y943701D1*
Y1293701D1*
X1368701Y1418701D1*
X1893701Y1193701D2*
D13*
Y1018701D1*
X1468701Y1418701D2*
D18*
X1543701Y1343701D1*
Y1068701D1*
X1518701Y1043701D1*
Y993701D1*
X2518701Y1168701D2*
D13*
Y1043701D1*
X2493701Y1018701D1*
X2098701Y1314488D2*
X2093701D1*
Y1168701D1*
X2218898D1*
X1143701Y718898D2*
X1268504D1*
X1293701Y693701D1*
X1368701D1*
X1418701Y818701D2*
X1368701Y768701D1*
Y693701D1*
Y643701D2*
X1418701D1*
X1718701Y943701D1*
Y1168896D1*
X1618701Y993701D2*
Y968701D1*
X1521596Y871596D1*
X1471596D1*
X2293701Y1168701D2*
Y1143701D1*
X2193701Y1043701D1*
Y1018701D1*
D44*
X1243701Y943701D3*
X1693701Y693701D3*
X408719Y2081332D2*
D19*
X1778693D1*
X408719Y2056463D2*
X463573D1*
X573858D2*
X930031D1*
X1057361D2*
X1778693D1*
X408719Y2031594D2*
X446457D1*
X590938D2*
X912198D1*
X1075231D2*
X1778693D1*
X408719Y2006726D2*
X440572D1*
X596824D2*
X904554D1*
X1082875D2*
X1436537D1*
X408719Y1981857D2*
X443155D1*
X594240D2*
X904375D1*
X1083018D2*
X1411669D1*
X408719Y1956988D2*
X455213D1*
X582182D2*
X911623D1*
X1075770D2*
X1306171D1*
X408719Y1932119D2*
X486827D1*
X550570D2*
X928848D1*
X1058546D2*
X1306171D1*
X408719Y1907251D2*
X976861D1*
X1010533D2*
X1306171D1*
X408719Y1882382D2*
X1306171D1*
X408719Y1857513D2*
X1287331D1*
X408719Y1832644D2*
X1262463D1*
X408719Y1807776D2*
X1237596D1*
X408719Y1782907D2*
X1212728D1*
X408719Y1758038D2*
X1187860D1*
X408719Y1733169D2*
X737980D1*
X408719Y1708301D2*
X713112D1*
X408719Y1683432D2*
X688244D1*
X408719Y1658563D2*
X678699D1*
X408719Y1633694D2*
X678699D1*
X408719Y1608825D2*
X678699D1*
X408719Y1583957D2*
X678699D1*
X408719Y1559088D2*
X678699D1*
X408719Y1534219D2*
X678699D1*
X408719Y1509350D2*
X678699D1*
X408719Y1484482D2*
X678699D1*
X408719Y1459613D2*
X440428D1*
X408719Y1434744D2*
X440428D1*
X408719Y1409875D2*
X440428D1*
X408719Y1385007D2*
X440428D1*
X408719Y1360138D2*
X440428D1*
X596967D2*
X678699D1*
X408719Y1335269D2*
X440428D1*
X596967D2*
X678699D1*
X408719Y1310400D2*
X678699D1*
X408719Y1285531D2*
X678699D1*
X408719Y1260663D2*
X678699D1*
X408719Y1235794D2*
X678699D1*
X408719Y1210925D2*
X665745D1*
X408719Y1186056D2*
X640878D1*
X408719Y1161188D2*
X616009D1*
X408719Y1136319D2*
X591142D1*
X408719Y1111450D2*
X566274D1*
X408719Y1086581D2*
X471432D1*
X408719Y1061713D2*
X456899D1*
X408719Y1036844D2*
X454602D1*
X408719Y1011975D2*
X462963D1*
X408719Y987106D2*
X490917D1*
X408719Y962238D2*
X558702D1*
X408719Y937369D2*
X587697D1*
X408719Y912500D2*
X616727D1*
X408719Y887631D2*
X645757D1*
X408719Y862762D2*
X674752D1*
X408719Y837894D2*
X703710D1*
X408719Y813025D2*
X703710D1*
X408719Y788156D2*
X462963D1*
X574432D2*
X692192D1*
X408719Y763287D2*
X449364D1*
X588031D2*
X683365D1*
X408719Y738419D2*
X446349D1*
X591046D2*
X682575D1*
X408719Y713550D2*
X446349D1*
X591046D2*
X682575D1*
X408719Y688681D2*
X446349D1*
X591046D2*
X682575D1*
X408719Y663812D2*
X446349D1*
X591046D2*
X682575D1*
X408719Y638944D2*
X446564D1*
X590831D2*
X682575D1*
X408719Y614075D2*
X453311D1*
X584085D2*
X685661D1*
X408719Y589206D2*
X473478D1*
X563917D2*
X699369D1*
X408719Y564337D2*
X542913D1*
X408719Y539469D2*
X522387D1*
X408719Y514600D2*
X515497D1*
X408719Y489731D2*
X517866D1*
X408719Y464862D2*
X530677D1*
X408719Y439993D2*
X572231D1*
X408719Y415125D2*
X703710D1*
X556713Y1099377D2*
Y1105689D1*
X562992D1*
X681193Y1223871D1*
X681201Y1360530D1*
X594483Y1360531D1*
X594469Y1317933D1*
X442933D1*
Y1469469D1*
X594469D1*
Y1461538D1*
X681175Y1461516D1*
X681239Y1669681D1*
X681812Y1672563D1*
X683043Y1675232D1*
X684862Y1677539D1*
X761353Y1753814D1*
X763917Y1755249D1*
X766745Y1756047D1*
X777887Y1756201D1*
X1188510D1*
X1308682Y1876360D1*
X1308681Y1978720D1*
X1411045D1*
X1461353Y2028814D1*
X1463917Y2030249D1*
X1466745Y2031047D1*
X1477887Y2031201D1*
X1781194D1*
X1781201Y2106224D1*
X406167Y2106201D1*
X406201Y406199D1*
X706217Y406201D1*
X706201Y441749D1*
X696953Y439659D1*
X686024Y438799D1*
X587598D1*
X576669Y439659D1*
X566009Y442219D1*
X555882Y446413D1*
X546534Y452142D1*
X538198Y459261D1*
X531079Y467597D1*
X525350Y476945D1*
X521156Y487072D1*
X518596Y497732D1*
X517736Y508661D1*
X518596Y519591D1*
X521156Y530251D1*
X525350Y540378D1*
X531079Y549726D1*
X538198Y558062D1*
X546534Y565181D1*
X555882Y570909D1*
X566009Y575104D1*
X576669Y577664D1*
X587619Y578522D1*
X691505Y578308D1*
X702332Y576593D1*
X706189Y575505D1*
X706201Y584596D1*
X701798Y589274D1*
X695354Y598143D1*
X690377Y607911D1*
X686990Y618337D1*
X685274Y629164D1*
X685059Y653018D1*
X685274Y758238D1*
X686990Y769064D1*
X690377Y779491D1*
X695354Y789259D1*
X701798Y798127D1*
X706198Y802781D1*
X706201Y837965D1*
X535706Y984089D1*
X527849Y982391D1*
X520533Y981740D1*
X513192Y981958D1*
X505928Y983043D1*
X498843Y984979D1*
X492037Y987740D1*
X485605Y991287D1*
X479638Y995570D1*
X474219Y1000528D1*
X469425Y1006092D1*
X465323Y1012184D1*
X461970Y1018719D1*
X459413Y1025605D1*
X457689Y1032744D1*
X456822Y1040037D1*
Y1047382D1*
X457692Y1054676D1*
X459419Y1061814D1*
X461976Y1068699D1*
X465332Y1075232D1*
X469436Y1081324D1*
X474232Y1086887D1*
X479652Y1091844D1*
X485621Y1096125D1*
X492052Y1099669D1*
X498860Y1102428D1*
X505945Y1104362D1*
X513210Y1105445D1*
X520551Y1105661D1*
X527867Y1105008D1*
X535054Y1103493D1*
X542012Y1101139D1*
X548642Y1097979D1*
X552783Y1095470D1*
X556709Y1099387D1*
X594446Y2000131D2*
X593668Y1990984D1*
X591789Y1981997D1*
X588837Y1973304D1*
X584856Y1965031D1*
X579903Y1957302D1*
X574051Y1950227D1*
X567387Y1943913D1*
X560008Y1938450D1*
X552022Y1933921D1*
X543547Y1930391D1*
X534707Y1927911D1*
X525634Y1926518D1*
X516457Y1926234D1*
X507314Y1927062D1*
X498337Y1928988D1*
X489660Y1931987D1*
X481409Y1936013D1*
X473706Y1941008D1*
X466663Y1946898D1*
X460385Y1953596D1*
X454962Y1961004D1*
X450475Y1969013D1*
X446991Y1977507D1*
X444558Y1986360D1*
X443215Y1995441D1*
X442979Y2004619D1*
X443856Y2013757D1*
X445831Y2022723D1*
X448877Y2031385D1*
X452946Y2039614D1*
X457983Y2047290D1*
X463909Y2054301D1*
X470642Y2060543D1*
X478079Y2065927D1*
X486113Y2070370D1*
X494625Y2073810D1*
X503491Y2076194D1*
X512579Y2077488D1*
X521759Y2077675D1*
X530892Y2076749D1*
X539846Y2074726D1*
X548491Y2071634D1*
X556698Y2067520D1*
X564348Y2062442D1*
X571327Y2056478D1*
X577533Y2049713D1*
X582875Y2042247D1*
X587276Y2034189D1*
X590669Y2025659D1*
X593007Y2016781D1*
X594252Y2007685D1*
X594446Y2000131D1*
X448845Y742909D2*
X449336Y751236D1*
X450593Y758474D1*
X452604Y765539D1*
X455345Y772354D1*
X458786Y778844D1*
X462890Y784936D1*
X467612Y790564D1*
X472896Y795665D1*
X478689Y800182D1*
X484924Y804067D1*
X491531Y807276D1*
X498440Y809773D1*
X505572Y811531D1*
X512849Y812530D1*
X520192Y812760D1*
X527517Y812217D1*
X534745Y810908D1*
X541797Y808848D1*
X548592Y806058D1*
X555056Y802571D1*
X561119Y798424D1*
X566714Y793663D1*
X571777Y788341D1*
X576253Y782517D1*
X580093Y776255D1*
X583255Y769625D1*
X585703Y762698D1*
X587409Y755554D1*
X588357Y748269D1*
X588563Y735564D1*
X588345Y638982D1*
X587383Y631699D1*
X585660Y624559D1*
X583197Y617638D1*
X580021Y611014D1*
X576168Y604761D1*
X571678Y598946D1*
X566604Y593635D1*
X561000Y588887D1*
X554928Y584753D1*
X548455Y581280D1*
X541654Y578504D1*
X534598Y576459D1*
X527367Y575165D1*
X520041Y574639D1*
X512699Y574885D1*
X505424Y575899D1*
X498295Y577672D1*
X491392Y580184D1*
X484791Y583407D1*
X478566Y587304D1*
X472783Y591836D1*
X467509Y596948D1*
X462801Y602585D1*
X458709Y608686D1*
X455282Y615184D1*
X452555Y622005D1*
X450560Y629075D1*
X449319Y636315D1*
X448845Y644484D1*
X448839Y742811D1*
X1081062Y1986825D2*
X1080253Y1979992D1*
X1078911Y1973244D1*
X1077043Y1966621D1*
X1074661Y1960165D1*
X1071781Y1953917D1*
X1068419Y1947913D1*
X1064596Y1942193D1*
X1060336Y1936789D1*
X1055665Y1931736D1*
X1050613Y1927066D1*
X1045209Y1922806D1*
X1039488Y1918983D1*
X1033484Y1915621D1*
X1027236Y1912740D1*
X1020781Y1910358D1*
X1014157Y1908491D1*
X1007409Y1907148D1*
X1000576Y1906340D1*
X993701Y1906070D1*
X986825Y1906340D1*
X979992Y1907148D1*
X973244Y1908491D1*
X966621Y1910358D1*
X960165Y1912740D1*
X953917Y1915621D1*
X947913Y1918983D1*
X942193Y1922806D1*
X936789Y1927066D1*
X931736Y1931736D1*
X927066Y1936789D1*
X922806Y1942193D1*
X918983Y1947913D1*
X915621Y1953917D1*
X912740Y1960165D1*
X910358Y1966621D1*
X908491Y1973244D1*
X907148Y1979992D1*
X906340Y1986825D1*
X906070Y1993701D1*
X906340Y2000576D1*
X907148Y2007409D1*
X908491Y2014157D1*
X910358Y2020781D1*
X912740Y2027236D1*
X915621Y2033484D1*
X918983Y2039488D1*
X922806Y2045209D1*
X927066Y2050613D1*
X931736Y2055665D1*
X936789Y2060336D1*
X942193Y2064596D1*
X947913Y2068419D1*
X953917Y2071781D1*
X960165Y2074661D1*
X966621Y2077043D1*
X973244Y2078911D1*
X979992Y2080253D1*
X986825Y2081062D1*
X993701Y2081332D1*
X1000576Y2081062D1*
X1007409Y2080253D1*
X1014157Y2078911D1*
X1020781Y2077043D1*
X1027236Y2074661D1*
X1033484Y2071781D1*
X1039488Y2068419D1*
X1045209Y2064596D1*
X1050613Y2060336D1*
X1055665Y2055665D1*
X1060336Y2050613D1*
X1064596Y2045209D1*
X1068419Y2039488D1*
X1071781Y2033484D1*
X1074661Y2027236D1*
X1077043Y2020781D1*
X1078911Y2014157D1*
X1080253Y2007409D1*
X1081062Y2000576D1*
X1081332Y1993701D1*
X1081062Y1986825D1*
X518701Y1105654D2*
D20*
Y981748D1*
X456748Y1043701D2*
X518701D1*
Y2077701D2*
Y1926236D1*
X442969Y2001969D2*
X594433D1*
X1368701Y1978685D2*
Y1918701D1*
X1308717D2*
X1368701D1*
X518701Y812740D2*
Y574661D1*
X448874Y693701D2*
X588528D1*
X408719Y581332D2*
D19*
X486324D1*
X551071D2*
X707262D1*
X802584D2*
X912054D1*
X1075340D2*
X1297881D1*
X1439528D2*
X1830474D1*
X1956942D2*
X2912059D1*
X3075344D2*
X3128692D1*
X408719Y556463D2*
X534157D1*
X739463D2*
X904518D1*
X1082911D2*
X1312881D1*
X1424529D2*
X1841634D1*
X1945747D2*
X2904488D1*
X3082881D2*
X3128692D1*
X408719Y531594D2*
X519122D1*
X754499D2*
X904411D1*
X1082983D2*
X2904416D1*
X3082988D2*
X3128692D1*
X408719Y506726D2*
X515247D1*
X758374D2*
X911766D1*
X1075663D2*
X2911736D1*
X3075631D2*
X3128692D1*
X408719Y481857D2*
X520593D1*
X753028D2*
X929100D1*
X1058294D2*
X2929104D1*
X3058299D2*
X3128692D1*
X408719Y456988D2*
X538070D1*
X735552D2*
X978547D1*
X1008846D2*
X2978552D1*
X3008850D2*
X3128692D1*
X408719Y432119D2*
X3128692D1*
X408719Y407251D2*
X3128692D1*
X1955661Y591864D2*
X1955009Y584549D1*
X1953496Y577361D1*
X1951144Y570403D1*
X1947986Y563772D1*
X1944064Y557562D1*
X1939436Y551858D1*
X1934167Y546743D1*
X1928328Y542286D1*
X1922004Y538551D1*
X1915282Y535591D1*
X1908257Y533446D1*
X1901028Y532147D1*
X1893697Y531713D1*
X1886365Y532148D1*
X1879135Y533448D1*
X1872112Y535593D1*
X1865390Y538555D1*
X1859066Y542291D1*
X1853228Y546748D1*
X1847959Y551865D1*
X1843332Y557568D1*
X1839412Y563780D1*
X1836255Y570411D1*
X1833903Y577370D1*
X1832391Y584556D1*
X1831740Y591873D1*
X1831958Y599214D1*
X1832991Y606203D1*
X1442207Y606201D1*
X1438785Y604253D1*
X1437853Y602109D1*
X1438551Y594801D1*
X1438261Y588199D1*
X1436924Y580980D1*
X1434547Y574033D1*
X1431184Y567507D1*
X1426902Y561541D1*
X1421797Y556265D1*
X1415975Y551789D1*
X1409563Y548211D1*
X1402698Y545608D1*
X1395526Y544034D1*
X1388386Y543524D1*
X1345160Y543672D1*
X1337900Y544770D1*
X1330879Y546916D1*
X1324245Y550064D1*
X1318142Y554146D1*
X1312699Y559075D1*
X1308035Y564747D1*
X1304249Y571037D1*
X1301420Y577812D1*
X1299612Y584929D1*
X1298860Y592232D1*
X1299182Y599568D1*
X1300428Y606201D1*
X1055160D1*
X1060336Y600613D1*
X1064596Y595209D1*
X1068419Y589488D1*
X1071781Y583484D1*
X1074661Y577236D1*
X1077043Y570781D1*
X1078911Y564157D1*
X1080253Y557409D1*
X1081062Y550576D1*
X1081332Y543701D1*
X1081062Y536825D1*
X1080253Y529992D1*
X1078911Y523244D1*
X1077043Y516621D1*
X1074661Y510165D1*
X1071781Y503917D1*
X1068419Y497913D1*
X1064596Y492193D1*
X1060336Y486789D1*
X1055665Y481736D1*
X1050613Y477066D1*
X1045209Y472806D1*
X1039488Y468983D1*
X1033484Y465621D1*
X1027236Y462740D1*
X1020781Y460358D1*
X1014157Y458491D1*
X1007409Y457148D1*
X1000576Y456340D1*
X993701Y456070D1*
X986825Y456340D1*
X979992Y457148D1*
X973244Y458491D1*
X966621Y460358D1*
X960165Y462740D1*
X953917Y465621D1*
X947913Y468983D1*
X942193Y472806D1*
X936789Y477066D1*
X931736Y481736D1*
X927066Y486789D1*
X922806Y492193D1*
X918983Y497913D1*
X915621Y503917D1*
X912740Y510165D1*
X910358Y516621D1*
X908491Y523244D1*
X907148Y529992D1*
X906340Y536825D1*
X906070Y543701D1*
X906340Y550576D1*
X907148Y557409D1*
X908491Y564157D1*
X910358Y570781D1*
X912740Y577236D1*
X915621Y583484D1*
X918983Y589488D1*
X922806Y595209D1*
X927066Y600613D1*
X932308Y606194D1*
X818761Y606201D1*
X814488Y598143D1*
X808045Y589274D1*
X800293Y581522D1*
X791424Y575079D1*
X781656Y570101D1*
X771230Y566714D1*
X760403Y564999D1*
X749440D1*
X738613Y566714D1*
X728186Y570101D1*
X718419Y575079D1*
X709550Y581522D1*
X701798Y589274D1*
X695354Y598143D1*
X691157Y606218D1*
X577117Y606201D1*
X571824Y599117D1*
X564072Y591365D1*
X555203Y584921D1*
X545436Y579944D1*
X535009Y576556D1*
X524182Y574841D1*
X513219D1*
X502392Y576556D1*
X491966Y579944D1*
X482198Y584921D1*
X473329Y591365D1*
X465577Y599117D1*
X460336Y606186D1*
X406236Y606201D1*
X406201Y406228D1*
X3131198Y406201D1*
X3131201Y606171D1*
X3055102Y606201D1*
X3060336Y600613D1*
X3064596Y595209D1*
X3068419Y589488D1*
X3071781Y583484D1*
X3074661Y577236D1*
X3077043Y570781D1*
X3078911Y564157D1*
X3080253Y557409D1*
X3081062Y550576D1*
X3081332Y543701D1*
X3081062Y536825D1*
X3080253Y529992D1*
X3078911Y523244D1*
X3077043Y516621D1*
X3074661Y510165D1*
X3071781Y503917D1*
X3068419Y497913D1*
X3064596Y492193D1*
X3060336Y486789D1*
X3055665Y481736D1*
X3050613Y477066D1*
X3045209Y472806D1*
X3039488Y468983D1*
X3033484Y465621D1*
X3027236Y462740D1*
X3020781Y460358D1*
X3014157Y458491D1*
X3007409Y457148D1*
X3000576Y456340D1*
X2993701Y456070D1*
X2986825Y456340D1*
X2979992Y457148D1*
X2973244Y458491D1*
X2966621Y460358D1*
X2960165Y462740D1*
X2953917Y465621D1*
X2947913Y468983D1*
X2942193Y472806D1*
X2936789Y477066D1*
X2931736Y481736D1*
X2927066Y486789D1*
X2922806Y492193D1*
X2918983Y497913D1*
X2915621Y503917D1*
X2912740Y510165D1*
X2910358Y516621D1*
X2908491Y523244D1*
X2907148Y529992D1*
X2906340Y536825D1*
X2906070Y543701D1*
X2906340Y550576D1*
X2907148Y557409D1*
X2908491Y564157D1*
X2910358Y570781D1*
X2912740Y577236D1*
X2915621Y583484D1*
X2918983Y589488D1*
X2922806Y595209D1*
X2927066Y600613D1*
X2932308Y606194D1*
X1954408Y606201D1*
X1955446Y599188D1*
X1955661Y591864D1*
X587619Y438801D2*
X576669Y439659D1*
X566009Y442219D1*
X555882Y446413D1*
X546534Y452142D1*
X538198Y459261D1*
X531079Y467597D1*
X525350Y476945D1*
X521156Y487072D1*
X518596Y497732D1*
X517736Y508661D1*
X518596Y519591D1*
X521156Y530251D1*
X525350Y540378D1*
X531079Y549726D1*
X538198Y558062D1*
X546534Y565181D1*
X555882Y570909D1*
X566009Y575104D1*
X576669Y577664D1*
X587619Y578522D1*
X691505Y578308D1*
X702332Y576593D1*
X712759Y573206D1*
X722526Y568228D1*
X731395Y561785D1*
X739147Y554033D1*
X745591Y545164D1*
X750568Y535396D1*
X753955Y524970D1*
X755671Y514143D1*
Y503180D1*
X753955Y492353D1*
X750568Y481927D1*
X745591Y472159D1*
X739147Y463290D1*
X731395Y455538D1*
X722526Y449094D1*
X712759Y444117D1*
X702332Y440730D1*
X691505Y439014D1*
X667651Y438799D1*
X587598Y438835D1*
X1893701Y593701D2*
D21*
Y531748D1*
X1831748Y593701D2*
X1955654D1*
X1368701D2*
Y543559D1*
X1298874Y593701D2*
X1438528D1*
X2758688Y2081332D2*
D19*
X3128714D1*
X2776127Y2056463D2*
X2930059D1*
X3057352D2*
X3128714D1*
X2800996Y2031594D2*
X2912189D1*
X3075222D2*
X3128714D1*
X2825864Y2006726D2*
X2904545D1*
X3082866D2*
X3128714D1*
X2850731Y1981857D2*
X2904366D1*
X3083045D2*
X3128714D1*
X2875598Y1956988D2*
X2911614D1*
X3075761D2*
X3128714D1*
X2900466Y1932119D2*
X2928839D1*
X3058537D2*
X3128714D1*
X2925335Y1907251D2*
X2976852D1*
X3010524D2*
X3128714D1*
X2950202Y1882382D2*
X3128714D1*
X2975070Y1857513D2*
X3128714D1*
X2983718Y1832644D2*
X3128714D1*
X2983718Y1807776D2*
X3128714D1*
X2983718Y1782907D2*
X3128714D1*
X2983718Y1758038D2*
X3128714D1*
X2983718Y1733169D2*
X3128714D1*
X2983718Y1708301D2*
X3128714D1*
X2983718Y1683432D2*
X3128714D1*
X2983718Y1658563D2*
X3128714D1*
X2983718Y1633694D2*
X3128714D1*
X2983718Y1608825D2*
X3128714D1*
X3060151Y1583957D2*
X3128714D1*
X3060151Y1559088D2*
X3128714D1*
X3060151Y1534219D2*
X3128714D1*
X3060151Y1509350D2*
X3128714D1*
X3060151Y1484482D2*
X3128714D1*
X2983718Y1459613D2*
X3128714D1*
X2983718Y1434744D2*
X3128714D1*
X3043249Y1409875D2*
X3128714D1*
X3057424Y1385007D2*
X3128714D1*
X3059828Y1360138D2*
X3128714D1*
X3052005Y1335269D2*
X3128714D1*
X3026850Y1310400D2*
X3128714D1*
X2983718Y1285531D2*
X3128714D1*
X2983718Y1260663D2*
X3128714D1*
X2983718Y1235794D2*
X3128714D1*
X3060151Y1210925D2*
X3128714D1*
X3060151Y1186056D2*
X3128714D1*
X3060151Y1161188D2*
X3128714D1*
X3060151Y1136319D2*
X3128714D1*
X3060151Y1111450D2*
X3128714D1*
X2983718Y1086581D2*
X3128714D1*
X2983718Y1061713D2*
X3128714D1*
X3041348Y1036844D2*
X3128714D1*
X3056814Y1011975D2*
X3128714D1*
X3060008Y987106D2*
X3128714D1*
X3053046Y962238D2*
X3128714D1*
X3030223Y937369D2*
X3128714D1*
X2983718Y912500D2*
X3128714D1*
X2982820Y887631D2*
X3128714D1*
X2957953Y862762D2*
X3128714D1*
X2933085Y837894D2*
X3128714D1*
X2908218Y813025D2*
X3128714D1*
X2883349Y788156D2*
X3128714D1*
X2858482Y763287D2*
X3128714D1*
X2860743Y738419D2*
X3128714D1*
X2868314Y713550D2*
X3128714D1*
X2865336Y688681D2*
X3128714D1*
X2849690Y663812D2*
X3128714D1*
X2734108Y638944D2*
X3128714D1*
X2709240Y614075D2*
X2938993D1*
X3048417D2*
X3128714D1*
X2684371Y589206D2*
X2916315D1*
X3071096D2*
X3128714D1*
X2659504Y564337D2*
X2906016D1*
X3081358D2*
X3128714D1*
X2634636Y539469D2*
X2903684D1*
X3083727D2*
X3128714D1*
X2609769Y514600D2*
X2908529D1*
X3078846D2*
X3128714D1*
X2584900Y489731D2*
X2922164D1*
X3065247D2*
X3128714D1*
X2560033Y464862D2*
X2952953D1*
X3034458D2*
X3128714D1*
X2535165Y439993D2*
X3128714D1*
X2866016Y706508D2*
X2865364Y699193D1*
X2863850Y692005D1*
X2861499Y685047D1*
X2858340Y678416D1*
X2854419Y672206D1*
X2849790Y666503D1*
X2844521Y661387D1*
X2838682Y656930D1*
X2832358Y653196D1*
X2825636Y650235D1*
X2818612Y648091D1*
X2811382Y646791D1*
X2804051Y646357D1*
X2796719Y646793D1*
X2789490Y648092D1*
X2782466Y650238D1*
X2775744Y653199D1*
X2769420Y656936D1*
X2763583Y661392D1*
X2758741Y666055D1*
X2523879Y431201D1*
X3131184D1*
X3131201Y2106227D1*
X2756188Y2106201D1*
X2756201Y2073904D1*
X2978814Y1851049D1*
X2980249Y1848484D1*
X2981047Y1845656D1*
X2981201Y1834514D1*
Y1607690D1*
X3057657Y1607657D1*
Y1479744D1*
X2981203D1*
X2981201Y1429274D1*
X2988682Y1430295D1*
X2998719D1*
X3008631Y1428724D1*
X3018176Y1425623D1*
X3027118Y1421067D1*
X3035238Y1415168D1*
X3042333Y1408072D1*
X3048232Y1399953D1*
X3052789Y1391010D1*
X3055890Y1381466D1*
X3057461Y1371554D1*
Y1361517D1*
X3055890Y1351605D1*
X3052789Y1342060D1*
X3048232Y1333118D1*
X3042333Y1324999D1*
X3035238Y1317903D1*
X3027118Y1312004D1*
X3018176Y1307448D1*
X3008631Y1304346D1*
X2998719Y1302776D1*
X2988682D1*
X2981214Y1303860D1*
X2981201Y1232629D1*
X3057657Y1232657D1*
Y1104744D1*
X2981189D1*
X2981201Y1054285D1*
X2989951Y1055382D1*
X2997297Y1055391D1*
X3004594Y1054558D1*
X3011748Y1052892D1*
X3018664Y1050419D1*
X3025251Y1047168D1*
X3031421Y1043184D1*
X3037094Y1038518D1*
X3042196Y1033234D1*
X3046656Y1027399D1*
X3050419Y1021091D1*
X3053433Y1014392D1*
X3055660Y1007394D1*
X3057070Y1000185D1*
X3057644Y992862D1*
X3057420Y986030D1*
X3056369Y978761D1*
X3054491Y971660D1*
X3051811Y964822D1*
X3048365Y958335D1*
X3044198Y952286D1*
X3039365Y946756D1*
X3033929Y941815D1*
X3027963Y937530D1*
X3021546Y933958D1*
X3014761Y931146D1*
X3007698Y929129D1*
X3000450Y927936D1*
X2993114Y927581D1*
X2985785Y928071D1*
X2981203Y928819D1*
X2981047Y891745D1*
X2980249Y888917D1*
X2978814Y886353D1*
X2971043Y878366D1*
X2846331Y753654D1*
X2851022Y748801D1*
X2855478Y742961D1*
X2859211Y736636D1*
X2862171Y729913D1*
X2864314Y722888D1*
X2865610Y715659D1*
X2866043Y708345D1*
X2866016Y706508D1*
X3081062Y1986825D2*
X3080253Y1979992D1*
X3078911Y1973244D1*
X3077043Y1966621D1*
X3074661Y1960165D1*
X3071781Y1953917D1*
X3068419Y1947913D1*
X3064596Y1942193D1*
X3060336Y1936789D1*
X3055665Y1931736D1*
X3050613Y1927066D1*
X3045209Y1922806D1*
X3039488Y1918983D1*
X3033484Y1915621D1*
X3027236Y1912740D1*
X3020781Y1910358D1*
X3014157Y1908491D1*
X3007409Y1907148D1*
X3000576Y1906340D1*
X2993701Y1906070D1*
X2986825Y1906340D1*
X2979992Y1907148D1*
X2973244Y1908491D1*
X2966621Y1910358D1*
X2960165Y1912740D1*
X2953917Y1915621D1*
X2947913Y1918983D1*
X2942193Y1922806D1*
X2936789Y1927066D1*
X2931736Y1931736D1*
X2927066Y1936789D1*
X2922806Y1942193D1*
X2918983Y1947913D1*
X2915621Y1953917D1*
X2912740Y1960165D1*
X2910358Y1966621D1*
X2908491Y1973244D1*
X2907148Y1979992D1*
X2906340Y1986825D1*
X2906070Y1993701D1*
X2906340Y2000576D1*
X2907148Y2007409D1*
X2908491Y2014157D1*
X2910358Y2020781D1*
X2912740Y2027236D1*
X2915621Y2033484D1*
X2918983Y2039488D1*
X2922806Y2045209D1*
X2927066Y2050613D1*
X2931736Y2055665D1*
X2936789Y2060336D1*
X2942193Y2064596D1*
X2947913Y2068419D1*
X2953917Y2071781D1*
X2960165Y2074661D1*
X2966621Y2077043D1*
X2973244Y2078911D1*
X2979992Y2080253D1*
X2986825Y2081062D1*
X2993701Y2081332D1*
X3000576Y2081062D1*
X3007409Y2080253D1*
X3014157Y2078911D1*
X3020781Y2077043D1*
X3027236Y2074661D1*
X3033484Y2071781D1*
X3039488Y2068419D1*
X3045209Y2064596D1*
X3050613Y2060336D1*
X3055665Y2055665D1*
X3060336Y2050613D1*
X3064596Y2045209D1*
X3068419Y2039488D1*
X3071781Y2033484D1*
X3074661Y2027236D1*
X3077043Y2020781D1*
X3078911Y2014157D1*
X3080253Y2007409D1*
X3081062Y2000576D1*
X3081332Y1993701D1*
X3081062Y1986825D1*
Y536825D2*
X3080253Y529992D1*
X3078911Y523244D1*
X3077043Y516621D1*
X3074661Y510165D1*
X3071781Y503917D1*
X3068419Y497913D1*
X3064596Y492193D1*
X3060336Y486789D1*
X3055665Y481736D1*
X3050613Y477066D1*
X3045209Y472806D1*
X3039488Y468983D1*
X3033484Y465621D1*
X3027236Y462740D1*
X3020781Y460358D1*
X3014157Y458491D1*
X3007409Y457148D1*
X3000576Y456340D1*
X2993701Y456070D1*
X2986825Y456340D1*
X2979992Y457148D1*
X2973244Y458491D1*
X2966621Y460358D1*
X2960165Y462740D1*
X2953917Y465621D1*
X2947913Y468983D1*
X2942193Y472806D1*
X2936789Y477066D1*
X2931736Y481736D1*
X2927066Y486789D1*
X2922806Y492193D1*
X2918983Y497913D1*
X2915621Y503917D1*
X2912740Y510165D1*
X2910358Y516621D1*
X2908491Y523244D1*
X2907148Y529992D1*
X2906340Y536825D1*
X2906070Y543701D1*
X2906340Y550576D1*
X2907148Y557409D1*
X2908491Y564157D1*
X2910358Y570781D1*
X2912740Y577236D1*
X2915621Y583484D1*
X2918983Y589488D1*
X2922806Y595209D1*
X2927066Y600613D1*
X2931736Y605665D1*
X2936789Y610336D1*
X2942193Y614596D1*
X2947913Y618419D1*
X2953917Y621781D1*
X2960165Y624661D1*
X2966621Y627043D1*
X2973244Y628911D1*
X2979992Y630253D1*
X2986825Y631062D1*
X2993701Y631332D1*
X3000576Y631062D1*
X3007409Y630253D1*
X3014157Y628911D1*
X3020781Y627043D1*
X3027236Y624661D1*
X3033484Y621781D1*
X3039488Y618419D1*
X3045209Y614596D1*
X3050613Y610336D1*
X3055665Y605665D1*
X3060336Y600613D1*
X3064596Y595209D1*
X3068419Y589488D1*
X3071781Y583484D1*
X3074661Y577236D1*
X3077043Y570781D1*
X3078911Y564157D1*
X3080253Y557409D1*
X3081062Y550576D1*
X3081332Y543701D1*
X3081062Y536825D1*
X2804055Y708345D2*
D21*
Y646392D1*
Y708345D2*
X2866008D1*
X2993701Y1055457D2*
Y927614D1*
Y991535D2*
X3057622D1*
X2993701Y1607621D2*
Y1479780D1*
Y1543701D2*
X3057622D1*
X986898Y703832D2*
D22*
X1000504D1*
X977034Y693963D2*
X1010367D1*
X967172Y684094D2*
X1020230D1*
X957289Y674226D2*
X1030113D1*
X947425Y664357D2*
X1039976D1*
X937562Y654488D2*
X1049840D1*
X927699Y644619D2*
X1059702D1*
X917816Y634751D2*
X1069585D1*
X907953Y624882D2*
X1079449D1*
X898089Y615013D2*
X956148D1*
X1031253D2*
X1089312D1*
X888206Y605144D2*
X941265D1*
X1046136D2*
X1099196D1*
X878344Y595276D2*
X931382D1*
X1056020D2*
X1109058D1*
X868480Y585407D2*
X924273D1*
X1063129D2*
X1118921D1*
X858617Y575538D2*
X919176D1*
X1068226D2*
X1128785D1*
X848734Y565669D2*
X915640D1*
X1071761D2*
X1138668D1*
X838870Y555801D2*
X913492D1*
X1073909D2*
X1148531D1*
X913761Y548694D2*
X914664Y556900D1*
X915642Y561803D1*
X916921Y566635D1*
X918501Y571379D1*
X920374Y576014D1*
X922531Y580524D1*
X924966Y584890D1*
X927668Y589096D1*
X930627Y593125D1*
X933832Y596962D1*
X937270Y600592D1*
X940928Y604000D1*
X944790Y607173D1*
X948844Y610100D1*
X953071Y612768D1*
X957457Y615167D1*
X961984Y617287D1*
X966634Y619122D1*
X971390Y620664D1*
X976232Y621906D1*
X981143Y622843D1*
X986102Y623471D1*
X991092Y623790D1*
X996091Y623797D1*
X1001081Y623491D1*
X1006042Y622875D1*
X1010955Y621953D1*
X1015801Y620724D1*
X1020560Y619196D1*
X1025217Y617374D1*
X1029749Y615265D1*
X1034142Y612878D1*
X1038377Y610222D1*
X1042438Y607307D1*
X1046310Y604144D1*
X1049976Y600745D1*
X1053424Y597126D1*
X1056639Y593298D1*
X1059609Y589277D1*
X1062323Y585077D1*
X1064769Y580718D1*
X1066940Y576215D1*
X1068824Y571584D1*
X1070417Y566845D1*
X1071711Y562017D1*
X1072701Y557117D1*
X1073383Y552164D1*
X1073701Y548701D1*
X1156612D1*
X993706Y711625D1*
X830776Y548705D1*
X913720Y548701D1*
D23*
X618701Y1043701D3*
D24*
X518701D3*
X993701Y818701D3*
D23*
Y1018701D3*
X1893701Y693701D3*
D24*
Y593701D3*
D86*
X2733345Y779056D3*
D24*
X2804055Y708345D3*
D25*
X518701Y1393701D3*
D26*
Y2001969D3*
D27*
X1893701Y1018701D3*
D28*
X1993701D3*
D27*
X2493701D3*
D28*
X2593701D3*
D27*
X2193701D3*
D28*
X2293701D3*
X1368701Y1918701D3*
D27*
X1468701D3*
X1368701Y1818701D3*
X1468701D3*
X1368701Y1718701D3*
X1468701D3*
X1368701Y1618701D3*
X1468701D3*
X1368701Y1518701D3*
X1468701D3*
X1368701Y1418701D3*
X1468701D3*
X1368701Y1318701D3*
X1468701D3*
D29*
X518701Y693701D3*
D30*
X754921D3*
D31*
X636811Y508661D3*
D28*
X1693701Y1968701D3*
D27*
Y1868701D3*
Y1768701D3*
D32*
X1068701Y1343701D3*
Y1540551D3*
D33*
X1618701Y993701D3*
D34*
X1518701D3*
X1418701D3*
D89*
X1368701Y693701D3*
D35*
Y643701D3*
Y593701D3*
D36*
X2818701Y1693701D3*
X2893504D3*
X1893701Y1193701D3*
X1968504D3*
X2518701Y1168701D3*
X2443898D3*
D37*
X1143701Y793701D3*
Y718898D3*
D92*
X1718701Y1243699D3*
Y1168896D3*
D95*
X1418701Y818701D3*
X1471596Y871596D3*
D36*
X2293701Y1168701D3*
X2218898D3*
D38*
X2993701D3*
D39*
Y991535D3*
X2737795D3*
Y1168701D3*
D38*
X2993701Y1543701D3*
D39*
Y1366535D3*
X2737795D3*
Y1543701D3*
D40*
X2627740Y2043701D3*
Y1993701D3*
Y1943701D3*
Y1893701D3*
Y1843701D3*
Y1793701D3*
Y1743701D3*
Y1693701D3*
Y1643701D3*
Y1593701D3*
Y1543701D3*
Y1493701D3*
Y1443701D3*
Y1393701D3*
D41*
X2498409Y1314370D3*
X2448701Y1314488D3*
X2398701D3*
X2348701D3*
X2298701D3*
X2248701D3*
X2198701D3*
X2148701D3*
X2098701D3*
X2048701D3*
D40*
X1918701Y1393488D3*
Y1443488D3*
Y1493488D3*
Y1543488D3*
Y1593488D3*
Y1643488D3*
Y1693488D3*
Y1743488D3*
Y1793488D3*
Y1843488D3*
Y1893488D3*
Y1943488D3*
Y1993488D3*
Y2043488D3*
D42*
X768701Y1343701D3*
D43*
Y1411024D3*
Y1478346D3*
Y1545669D3*
Y1612992D3*
D33*
X2418701Y693701D3*
D34*
X2318701D3*
X2218701D3*
M02*
