G04 DipTrace 3.2.0.1*
G04 BottomSilk.gbr*
%MOIN*%
G04 #@! TF.FileFunction,Legend,Bot*
G04 #@! TF.Part,Single*
%ADD85C,0.009264*%
%FSLAX26Y26*%
G04*
G70*
G90*
G75*
G01*
G04 BotSilk*
%LPD*%
X2892658Y1615105D2*
D85*
X2866858D1*
X2858236Y1618023D1*
X2855318Y1620875D1*
X2852466Y1626579D1*
Y1632349D1*
X2855318Y1638053D1*
X2858236Y1640971D1*
X2866858Y1643823D1*
X2892658D1*
Y1583535D1*
X2872562Y1615105D2*
X2852466Y1583535D1*
X2833939Y1632283D2*
X2828169Y1635201D1*
X2819547Y1643756D1*
Y1583535D1*
X1655558Y1215105D2*
X1629758D1*
X1621136Y1218023D1*
X1618218Y1220875D1*
X1615366Y1226579D1*
Y1232349D1*
X1618218Y1238053D1*
X1621136Y1240971D1*
X1629758Y1243823D1*
X1655558D1*
Y1183535D1*
X1635462Y1215105D2*
X1615366Y1183535D1*
X1593921Y1229431D2*
Y1232283D1*
X1591069Y1238053D1*
X1588217Y1240905D1*
X1582447Y1243756D1*
X1570973D1*
X1565269Y1240905D1*
X1562417Y1238053D1*
X1559499Y1232283D1*
Y1226579D1*
X1562417Y1220809D1*
X1568121Y1212253D1*
X1596839Y1183535D1*
X1556647D1*
X2455755Y1090105D2*
X2429955D1*
X2421333Y1093023D1*
X2418415Y1095875D1*
X2415563Y1101579D1*
Y1107349D1*
X2418415Y1113053D1*
X2421333Y1115971D1*
X2429955Y1118823D1*
X2455755D1*
Y1058535D1*
X2435659Y1090105D2*
X2415563Y1058535D1*
X2391266Y1118756D2*
X2359762D1*
X2376940Y1095809D1*
X2368318D1*
X2362614Y1092957D1*
X2359762Y1090105D1*
X2356844Y1081483D1*
Y1075779D1*
X2359762Y1067157D1*
X2365466Y1061387D1*
X2374088Y1058535D1*
X2382710D1*
X2391266Y1061387D1*
X2394117Y1064305D1*
X2397036Y1070009D1*
X1194582Y644239D2*
X1168782D1*
X1160160Y647157D1*
X1157242Y650009D1*
X1154390Y655713D1*
Y661483D1*
X1157242Y667187D1*
X1160160Y670105D1*
X1168782Y672957D1*
X1194582D1*
Y612669D1*
X1174486Y644239D2*
X1154390Y612669D1*
X1107145D2*
Y672890D1*
X1135863Y632765D1*
X1092819D1*
X1843156Y1094237D2*
X1817357D1*
X1808734Y1097156D1*
X1805816Y1100007D1*
X1802964Y1105711D1*
Y1111481D1*
X1805816Y1117185D1*
X1808734Y1120103D1*
X1817357Y1122955D1*
X1843156D1*
Y1062667D1*
X1823060Y1094237D2*
X1802964Y1062667D1*
X1750015Y1122889D2*
X1778667D1*
X1781519Y1097089D1*
X1778667Y1099941D1*
X1770045Y1102859D1*
X1761489D1*
X1752867Y1099941D1*
X1747097Y1094237D1*
X1744245Y1085615D1*
Y1079911D1*
X1747097Y1071289D1*
X1752867Y1065519D1*
X1761489Y1062667D1*
X1770045D1*
X1778667Y1065519D1*
X1781519Y1068437D1*
X1784437Y1074141D1*
X1393145Y905658D2*
X1367345D1*
X1358723Y908576D1*
X1355805Y911428D1*
X1352953Y917132D1*
Y922902D1*
X1355805Y928606D1*
X1358723Y931524D1*
X1367345Y934376D1*
X1393145D1*
Y874088D1*
X1373049Y905658D2*
X1352953Y874088D1*
X1300004Y925754D2*
X1302856Y931458D1*
X1311478Y934310D1*
X1317182D1*
X1325804Y931458D1*
X1331574Y922836D1*
X1334426Y908510D1*
Y894184D1*
X1331574Y882710D1*
X1325804Y876940D1*
X1317182Y874088D1*
X1314330D1*
X1305774Y876940D1*
X1300004Y882710D1*
X1297152Y891332D1*
Y894184D1*
X1300004Y902806D1*
X1305774Y908510D1*
X1314330Y911362D1*
X1317182D1*
X1325804Y908510D1*
X1331574Y902806D1*
X1334426Y894184D1*
X2155755Y1090105D2*
X2129955D1*
X2121333Y1093023D1*
X2118415Y1095875D1*
X2115563Y1101579D1*
Y1107349D1*
X2118415Y1113053D1*
X2121333Y1115971D1*
X2129955Y1118823D1*
X2155755D1*
Y1058535D1*
X2135659Y1090105D2*
X2115563Y1058535D1*
X2085562D2*
X2056844Y1118756D1*
X2097036D1*
X2309776Y1510555D2*
Y1467511D1*
X2306924Y1458889D1*
X2301154Y1453185D1*
X2292532Y1450267D1*
X2286828D1*
X2278206Y1453185D1*
X2272436Y1458889D1*
X2269584Y1467511D1*
Y1510555D1*
X2251057Y1499015D2*
X2245287Y1501933D1*
X2236665Y1510489D1*
Y1450267D1*
X2664404Y531070D2*
Y470782D1*
Y502351D2*
X2670108Y508122D1*
X2675878Y510974D1*
X2684500D1*
X2690204Y508122D1*
X2695974Y502351D1*
X2698826Y493729D1*
Y488026D1*
X2695974Y479404D1*
X2690204Y473700D1*
X2684500Y470782D1*
X2675878D1*
X2670108Y473700D1*
X2664404Y479404D1*
X2611455Y510974D2*
Y470782D1*
Y502351D2*
X2617159Y508122D1*
X2622929Y510974D1*
X2631485D1*
X2637255Y508122D1*
X2642959Y502351D1*
X2645877Y493729D1*
Y488026D1*
X2642959Y479404D1*
X2637255Y473700D1*
X2631485Y470782D1*
X2622929D1*
X2617159Y473700D1*
X2611455Y479404D1*
X2592928Y510974D2*
Y470782D1*
Y499500D2*
X2584306Y508122D1*
X2578536Y510974D1*
X2569980D1*
X2564210Y508122D1*
X2561358Y499500D1*
Y470782D1*
Y499500D2*
X2552736Y508122D1*
X2546966Y510974D1*
X2538410D1*
X2532640Y508122D1*
X2529722Y499500D1*
Y470782D1*
X2496869Y510974D2*
X2502573Y508122D1*
X2508343Y502351D1*
X2511195Y493729D1*
Y488026D1*
X2508343Y479404D1*
X2502573Y473700D1*
X2496869Y470782D1*
X2488247D1*
X2482477Y473700D1*
X2476773Y479404D1*
X2473855Y488026D1*
Y493729D1*
X2476773Y502351D1*
X2482477Y508122D1*
X2488247Y510974D1*
X2496869D1*
X2455327D2*
X2443854Y470782D1*
X2432380Y510974D1*
X2420906Y470782D1*
X2409432Y510974D1*
X2388053Y476552D2*
X2390905Y473633D1*
X2388053Y470782D1*
X2385134Y473633D1*
X2388053Y476552D1*
X2366607Y510974D2*
Y470782D1*
Y499500D2*
X2357985Y508122D1*
X2352215Y510974D1*
X2343659D1*
X2337889Y508122D1*
X2335037Y499500D1*
Y470782D1*
X2316510Y493729D2*
X2282088D1*
Y499500D1*
X2284940Y505270D1*
X2287792Y508122D1*
X2293562Y510974D1*
X2302184D1*
X2307888Y508122D1*
X2313658Y502351D1*
X2316510Y493729D1*
Y488026D1*
X2313658Y479404D1*
X2307888Y473700D1*
X2302184Y470782D1*
X2293562D1*
X2287792Y473700D1*
X2282088Y479404D1*
X2254939Y531070D2*
Y482255D1*
X2252087Y473700D1*
X2246317Y470782D1*
X2240613D1*
X2263561Y510974D2*
X2243465D1*
M02*
