M48
INCH
T01C0.0276
T02C0.035
T03C0.0354
T04C0.0394
T05C0.04
T06C0.0433
T07C0.0551
T08C0.0984
%
T01
X+013687Y+006937
X+013687Y+006437
X+013687Y+005937
T02
X+018937Y+010187
X+019937Y+010187
X+021937Y+010187
X+022937Y+010187
X+024937Y+010187
X+025937Y+010187
T03
X+006187Y+010437
X+005187Y+010437
X+009937Y+010187
X+009937Y+008187
X+013687Y+013187
X+013687Y+014187
X+013687Y+015187
X+013687Y+016187
X+013687Y+017187
X+013687Y+018187
X+013687Y+019187
X+014687Y+019187
X+014687Y+018187
X+014687Y+017187
X+014687Y+016187
X+014687Y+015187
X+014687Y+014187
X+014687Y+013187
X+016937Y+017687
X+016937Y+018687
X+016937Y+019687
X+018937Y+006937
X+018937Y+005937
X+027333Y+007791
X+028041Y+007083
T04
X+005187Y+006445G85X+005187Y+007429
X+006860Y+005087G85X+005876Y+005087
X+007549Y+006346G85X+007549Y+007528
X+010687Y+013437
X+010687Y+015406
X+027378Y+015437
X+027378Y+013665
X+027378Y+011687
X+027378Y+009915
X+029937Y+009915
X+029937Y+011687
X+029937Y+013665
X+029937Y+015437
T05
X+012437Y+009437
X+016937Y+006937
T06
X+016187Y+009937
X+015187Y+009937
X+014187Y+009937
X+007687Y+013437
X+007687Y+014110
X+007687Y+014783
X+007687Y+015457
X+007687Y+016130
X+022187Y+006937
X+023187Y+006937
X+024187Y+006937
T07
X+005187Y+013937
X+005187Y+020020
T08
X+029937Y+019937
X+029937Y+005437
X+009937Y+005437
X+009937Y+019937
T00
M30
