G04 DipTrace 3.2.0.1*
G04 Top.gbr*
%MOIN*%
G04 #@! TF.FileFunction,Copper,L1,Top*
G04 #@! TF.Part,Single*
%AMOUTLINE0*
4,1,4,
0.0,-0.044542,
-0.044542,0.0,
0.0,0.044542,
0.044542,0.0,
0.0,-0.044542,
0*%
%AMOUTLINE3*
4,1,8,
-0.029528,0.019685,
-0.03937,0.009843,
-0.03937,-0.009843,
-0.029528,-0.019685,
0.029528,-0.019685,
0.03937,-0.009843,
0.03937,0.009843,
0.029528,0.019685,
-0.029528,0.019685,
0*%
G04 #@! TA.AperFunction,Conductor*
%ADD14C,0.04*%
G04 #@! TA.AperFunction,ComponentPad*
%ADD23R,0.062992X0.062992*%
%ADD24C,0.062992*%
%ADD25R,0.090551X0.090551*%
%ADD26C,0.090551*%
%ADD27C,0.059055*%
%ADD28R,0.059055X0.059055*%
%ADD29O,0.07874X0.177165*%
%ADD30O,0.07874X0.19685*%
%ADD31O,0.177165X0.07874*%
%ADD32C,0.062992*%
%ADD33R,0.074803X0.074803*%
%ADD34C,0.074803*%
%ADD35O,0.07874X0.03937*%
%ADD38R,0.066929X0.066929*%
%ADD39C,0.066929*%
%ADD42R,0.070866X0.055118*%
%ADD43O,0.070866X0.055118*%
G04 #@! TA.AperFunction,ViaPad*
%ADD44C,0.07*%
G04 #@! TA.AperFunction,ComponentPad*
%ADD86OUTLINE0*%
%ADD89OUTLINE3*%
%FSLAX26Y26*%
G04*
G70*
G90*
G75*
G01*
G04 Top*
%LPD*%
X1243701Y943701D2*
D14*
Y818701D1*
X1568701D1*
X1693701Y693701D1*
D44*
X1243701Y943701D3*
X1693701Y693701D3*
D23*
X618701Y1043701D3*
D24*
X518701D3*
X993701Y818701D3*
D23*
Y1018701D3*
X1893701Y693701D3*
D24*
Y593701D3*
D86*
X2733345Y779056D3*
D24*
X2804055Y708345D3*
D25*
X518701Y1393701D3*
D26*
Y2001969D3*
D27*
X1893701Y1018701D3*
D28*
X1993701D3*
D27*
X2493701D3*
D28*
X2593701D3*
D27*
X2193701D3*
D28*
X2293701D3*
X1368701Y1918701D3*
D27*
X1468701D3*
X1368701Y1818701D3*
X1468701D3*
X1368701Y1718701D3*
X1468701D3*
X1368701Y1618701D3*
X1468701D3*
X1368701Y1518701D3*
X1468701D3*
X1368701Y1418701D3*
X1468701D3*
X1368701Y1318701D3*
X1468701D3*
D29*
X518701Y693701D3*
D30*
X754921D3*
D31*
X636811Y508661D3*
D28*
X1693701Y1968701D3*
D27*
Y1868701D3*
Y1768701D3*
D32*
X1068701Y1343701D3*
Y1540551D3*
D33*
X1618701Y993701D3*
D34*
X1518701D3*
X1418701D3*
D89*
X1368701Y693701D3*
D35*
Y643701D3*
Y593701D3*
D38*
X2993701Y1168701D3*
D39*
Y991535D3*
X2737795D3*
Y1168701D3*
D38*
X2993701Y1543701D3*
D39*
Y1366535D3*
X2737795D3*
Y1543701D3*
D42*
X768701Y1343701D3*
D43*
Y1411024D3*
Y1478346D3*
Y1545669D3*
Y1612992D3*
D33*
X2418701Y693701D3*
D34*
X2318701D3*
X2218701D3*
M02*
