G04 DipTrace 3.2.0.1*
G04 TopMask.gbr*
%MOIN*%
G04 #@! TF.FileFunction,Soldermask,Top*
G04 #@! TF.Part,Single*
%AMOUTLINE1*
4,1,4,
0.0,-0.05011,
-0.05011,0.0,
0.0,0.05011,
0.05011,0.0,
0.0,-0.05011,
0*%
%AMOUTLINE4*
4,1,8,
-0.031158,0.023622,
-0.043307,0.011473,
-0.043307,-0.011473,
-0.031158,-0.023622,
0.031158,-0.023622,
0.043307,-0.011473,
0.043307,0.011473,
0.031158,0.023622,
-0.031158,0.023622,
0*%
%ADD33R,0.074803X0.074803*%
%ADD34C,0.074803*%
%ADD38R,0.066929X0.066929*%
%ADD39C,0.066929*%
%ADD45C,0.09842*%
%ADD54O,0.07874X0.062992*%
%ADD56R,0.07874X0.062992*%
%ADD66O,0.086614X0.047244*%
%ADD68C,0.082677*%
%ADD69R,0.082677X0.082677*%
%ADD70C,0.070866*%
%ADD72O,0.185039X0.086614*%
%ADD74O,0.086614X0.204724*%
%ADD76O,0.086614X0.185039*%
%ADD80C,0.098425*%
%ADD81R,0.098425X0.098425*%
%ADD82C,0.070866*%
%ADD83R,0.070866X0.070866*%
%ADD87OUTLINE1*%
%ADD90OUTLINE4*%
%FSLAX26Y26*%
G04*
G70*
G90*
G75*
G01*
G04 TopMask*
%LPD*%
D83*
X618701Y1043701D3*
D82*
X518701D3*
X993701Y818701D3*
D83*
Y1018701D3*
X1893701Y693701D3*
D82*
Y593701D3*
D87*
X2733345Y779056D3*
D82*
X2804055Y708345D3*
D81*
X518701Y1393701D3*
D80*
Y2001969D3*
D39*
X1893701Y1018701D3*
D38*
X1993701D3*
D39*
X2493701D3*
D38*
X2593701D3*
D39*
X2193701D3*
D38*
X2293701D3*
D45*
X2993701Y1993701D3*
X993701D3*
X2993701Y543701D3*
X993701D3*
D38*
X1368701Y1918701D3*
D39*
X1468701D3*
X1368701Y1818701D3*
X1468701D3*
X1368701Y1718701D3*
X1468701D3*
X1368701Y1618701D3*
X1468701D3*
X1368701Y1518701D3*
X1468701D3*
X1368701Y1418701D3*
X1468701D3*
X1368701Y1318701D3*
X1468701D3*
D76*
X518701Y693701D3*
D74*
X754921D3*
D72*
X636811Y508661D3*
D38*
X1693701Y1968701D3*
D39*
Y1868701D3*
Y1768701D3*
D70*
X1068701Y1343701D3*
Y1540551D3*
D69*
X1618701Y993701D3*
D68*
X1518701D3*
X1418701D3*
D90*
X1368701Y693701D3*
D66*
Y643701D3*
Y593701D3*
D33*
X2993701Y1168701D3*
D34*
Y991535D3*
X2737795D3*
Y1168701D3*
D33*
X2993701Y1543701D3*
D34*
Y1366535D3*
X2737795D3*
Y1543701D3*
D56*
X768701Y1343701D3*
D54*
Y1411024D3*
Y1478346D3*
Y1545669D3*
Y1612992D3*
D69*
X2418701Y693701D3*
D68*
X2318701D3*
X2218701D3*
M02*
