G04 DipTrace 3.2.0.1*
G04 TopSilk.gbr*
%MOIN*%
G04 #@! TF.FileFunction,Legend,Top*
G04 #@! TF.Part,Single*
%ADD10C,0.009843*%
%ADD85C,0.009264*%
%FSLAX26Y26*%
G04*
G70*
G90*
G75*
G01*
G04 TopSilk*
%LPD*%
X698582Y1055521D2*
D10*
Y1031881D1*
X710401Y1043701D2*
X686787D1*
X468707D2*
G02X468707Y1043701I99965J0D01*
G01*
X981881Y1099811D2*
X1005521D1*
X993701Y1111608D2*
Y1087981D1*
X843701Y918702D2*
G02X843701Y918702I150000J0D01*
G01*
X1881881Y773582D2*
X1905521D1*
X1893701Y785401D2*
Y761787D1*
X1793701Y643671D2*
G02X1793701Y643671I100000J0D01*
G01*
X2668502Y827184D2*
X2685220Y843899D1*
X2668502D2*
X2685200Y827204D1*
X2668722Y743677D2*
G02X2668722Y743677I99999J0D01*
G01*
X591535Y1522361D2*
X445866D1*
Y1873308D1*
X591535Y1522361D2*
Y1873308D1*
Y1845006D2*
Y1876802D1*
X445866D1*
Y1845006D1*
Y1565478D2*
X591535D1*
X2042126Y1075930D2*
Y961472D1*
G02X2042126Y1075930I-98597J57229D01*
G01*
X2642126D2*
Y961472D1*
G02X2642126Y1075930I-98597J57229D01*
G01*
X2342126D2*
Y961472D1*
G02X2342126Y1075930I-98597J57229D01*
G01*
X1318701Y1268701D2*
X1518701D1*
X1318701Y1968701D2*
X1518701D1*
Y1268701D1*
X1318701Y1968701D2*
Y1268701D1*
X215551Y870866D2*
Y516517D1*
X530502D1*
X743131D2*
X782485D1*
Y585427D1*
Y801956D2*
Y870866D1*
X215551D1*
X1643701Y2018701D2*
X1743701D1*
Y1718701D1*
X1643701D2*
X1743701D1*
X1643701Y2018701D2*
Y1718701D1*
X988005Y1571999D2*
G02X1198573Y1361430I80851J-129717D01*
G01*
G03X1149397Y1312253I-22545J-26632D01*
G01*
X938828Y1522822D2*
G03X988005Y1571999I22545J26631D01*
G01*
X1149397Y1312253D2*
G02X938828Y1522822I-80851J129717D01*
G01*
X1715551Y887402D2*
X1321850D1*
Y1064567D1*
X1715551D1*
Y887402D1*
Y922835D2*
X1321850D1*
X1315558Y719321D2*
G02X1315558Y568080I66569J-75620D01*
G01*
Y719321D1*
X2794886Y1080118D2*
G02X2794886Y1080118I70862J0D01*
G01*
X2956303Y962001D2*
X2775193D1*
X2747623Y1040746D2*
Y1119491D1*
X2775193Y1198235D2*
X2944487D1*
X2983873Y1119491D2*
Y1040746D1*
X2806702Y1080118D2*
G02X2806702Y1080118I59046J0D01*
G01*
X2794886Y1455118D2*
G02X2794886Y1455118I70862J0D01*
G01*
X2956303Y1337001D2*
X2775193D1*
X2747623Y1415746D2*
Y1494491D1*
X2775193Y1573235D2*
X2944487D1*
X2983873Y1494491D2*
Y1415746D1*
X2806702Y1455118D2*
G02X2806702Y1455118I59046J0D01*
G01*
X678142Y1268898D2*
Y1686220D1*
X658465Y1268898D2*
Y1686220D1*
X851378Y1268898D2*
Y1686220D1*
Y1268898D2*
X658465D1*
X851378Y1686220D2*
X658465D1*
X2515551Y587402D2*
X2121850D1*
Y764567D1*
X2515551D1*
Y587402D1*
Y622835D2*
X2121850D1*
X719616Y959024D2*
D85*
X716764Y964728D1*
X710994Y970498D1*
X705290Y973350D1*
X693816D1*
X688046Y970498D1*
X682342Y964728D1*
X679424Y959024D1*
X676572Y950402D1*
Y936010D1*
X679424Y927455D1*
X682342Y921684D1*
X688046Y915981D1*
X693816Y913062D1*
X705290D1*
X710994Y915981D1*
X716764Y921684D1*
X719616Y927455D1*
X738143Y961810D2*
X743913Y964728D1*
X752535Y973284D1*
Y913062D1*
X985863Y734018D2*
X983011Y739722D1*
X977241Y745492D1*
X971537Y748344D1*
X960063D1*
X954293Y745492D1*
X948589Y739722D1*
X945671Y734018D1*
X942819Y725396D1*
Y711004D1*
X945671Y702448D1*
X948589Y696678D1*
X954293Y690974D1*
X960063Y688056D1*
X971537D1*
X977241Y690974D1*
X983011Y696678D1*
X985863Y702448D1*
X1007309Y733952D2*
Y736804D1*
X1010160Y742574D1*
X1013012Y745426D1*
X1018782Y748277D1*
X1030256D1*
X1035960Y745426D1*
X1038812Y742574D1*
X1041730Y736804D1*
Y731100D1*
X1038812Y725330D1*
X1033108Y716774D1*
X1004390Y688056D1*
X1044582D1*
X1885863Y509030D2*
X1883011Y514734D1*
X1877241Y520504D1*
X1871537Y523356D1*
X1860063D1*
X1854293Y520504D1*
X1848589Y514734D1*
X1845671Y509030D1*
X1842819Y500408D1*
Y486016D1*
X1845671Y477460D1*
X1848589Y471690D1*
X1854293Y465986D1*
X1860063Y463068D1*
X1871537D1*
X1877241Y465986D1*
X1883011Y471690D1*
X1885863Y477460D1*
X1910160Y523290D2*
X1941664D1*
X1924486Y500342D1*
X1933108D1*
X1938812Y497490D1*
X1941664Y494638D1*
X1944582Y486016D1*
Y480312D1*
X1941664Y471690D1*
X1935960Y465920D1*
X1927338Y463068D1*
X1918716D1*
X1910160Y465920D1*
X1907309Y468838D1*
X1904390Y474542D1*
X2759348Y609039D2*
X2756496Y614743D1*
X2750726Y620513D1*
X2745022Y623365D1*
X2733548D1*
X2727778Y620513D1*
X2722074Y614743D1*
X2719156Y609039D1*
X2716304Y600417D1*
Y586025D1*
X2719156Y577469D1*
X2722074Y571699D1*
X2727778Y565995D1*
X2733548Y563077D1*
X2745022D1*
X2750726Y565995D1*
X2756496Y571699D1*
X2759348Y577469D1*
X2806593Y563077D2*
Y623298D1*
X2777875Y583173D1*
X2820919D1*
X482145Y1328075D2*
Y1267787D1*
X502241D1*
X510863Y1270705D1*
X516633Y1276409D1*
X519485Y1282179D1*
X522337Y1290735D1*
Y1305127D1*
X519485Y1313749D1*
X516633Y1319453D1*
X510863Y1325223D1*
X502241Y1328075D1*
X482145D1*
X540864Y1316534D2*
X546634Y1319453D1*
X555256Y1328008D1*
Y1267787D1*
X1886371Y884348D2*
Y824060D1*
X1906467D1*
X1915089Y826979D1*
X1920859Y832683D1*
X1923711Y838453D1*
X1926563Y847008D1*
Y861401D1*
X1923711Y870023D1*
X1920859Y875726D1*
X1915089Y881497D1*
X1906467Y884348D1*
X1886371D1*
X1948009Y869956D2*
Y872808D1*
X1950860Y878578D1*
X1953712Y881430D1*
X1959483Y884282D1*
X1970956D1*
X1976660Y881430D1*
X1979512Y878578D1*
X1982430Y872808D1*
Y867104D1*
X1979512Y861334D1*
X1973808Y852779D1*
X1945090Y824060D1*
X1985282D1*
X2486371Y884348D2*
Y824060D1*
X2506467D1*
X2515089Y826979D1*
X2520859Y832683D1*
X2523711Y838453D1*
X2526563Y847008D1*
Y861401D1*
X2523711Y870023D1*
X2520859Y875726D1*
X2515089Y881497D1*
X2506467Y884348D1*
X2486371D1*
X2550860Y884282D2*
X2582364D1*
X2565186Y861334D1*
X2573808D1*
X2579512Y858482D1*
X2582364Y855630D1*
X2585282Y847008D1*
Y841305D1*
X2582364Y832683D1*
X2576660Y826912D1*
X2568038Y824060D1*
X2559416D1*
X2550860Y826912D1*
X2548009Y829831D1*
X2545090Y835534D1*
X2184945Y884348D2*
Y824060D1*
X2205041D1*
X2213663Y826979D1*
X2219433Y832683D1*
X2222285Y838453D1*
X2225137Y847008D1*
Y861401D1*
X2222285Y870023D1*
X2219433Y875726D1*
X2213663Y881497D1*
X2205041Y884348D1*
X2184945D1*
X2272382Y824060D2*
Y884282D1*
X2243664Y844156D1*
X2286708D1*
X1416600Y1248350D2*
Y1202455D1*
X1413748Y1193832D1*
X1410830Y1190981D1*
X1405126Y1188062D1*
X1399356D1*
X1393652Y1190981D1*
X1390800Y1193832D1*
X1387882Y1202455D1*
Y1208158D1*
X1435127Y1236810D2*
X1440897Y1239728D1*
X1449519Y1248284D1*
Y1188062D1*
X439921Y498941D2*
Y453045D1*
X437069Y444423D1*
X434151Y441571D1*
X428447Y438653D1*
X422677D1*
X416973Y441571D1*
X414121Y444423D1*
X411203Y453045D1*
Y458749D1*
X461366Y484549D2*
Y487401D1*
X464218Y493171D1*
X467070Y496023D1*
X472840Y498875D1*
X484314D1*
X490018Y496023D1*
X492870Y493171D1*
X495788Y487401D1*
Y481697D1*
X492870Y475927D1*
X487166Y467371D1*
X458448Y438653D1*
X498640D1*
X1678700Y1698350D2*
Y1652455D1*
X1675848Y1643832D1*
X1672930Y1640981D1*
X1667226Y1638062D1*
X1661456D1*
X1655752Y1640981D1*
X1652900Y1643832D1*
X1649982Y1652455D1*
Y1658158D1*
X1702997Y1698284D2*
X1734501D1*
X1717323Y1675336D1*
X1725945D1*
X1731649Y1672484D1*
X1734501Y1669632D1*
X1737419Y1661010D1*
Y1655306D1*
X1734501Y1646684D1*
X1728797Y1640914D1*
X1720175Y1638062D1*
X1711553D1*
X1702997Y1640914D1*
X1700146Y1643832D1*
X1697227Y1649536D1*
X1035030Y1268769D2*
Y1208481D1*
X1069452D1*
X1087979Y1257229D2*
X1093749Y1260147D1*
X1102371Y1268703D1*
Y1208481D1*
X1496504Y867051D2*
X1490800Y864266D1*
X1485030Y858495D1*
X1482178Y852725D1*
X1479260Y844103D1*
Y829777D1*
X1482178Y821155D1*
X1485030Y815452D1*
X1490800Y809681D1*
X1496504Y806829D1*
X1507978D1*
X1513748Y809681D1*
X1519452Y815452D1*
X1522304Y821155D1*
X1525222Y829777D1*
Y844103D1*
X1522304Y852725D1*
X1519452Y858495D1*
X1513748Y864266D1*
X1507978Y867051D1*
X1496504D1*
X1505126Y818303D2*
X1522304Y801059D1*
X1543749Y855511D2*
X1549519Y858429D1*
X1558142Y866985D1*
Y806763D1*
X1364120Y522603D2*
X1358416Y519818D1*
X1352646Y514048D1*
X1349794Y508278D1*
X1346876Y499656D1*
Y485330D1*
X1349794Y476708D1*
X1352646Y471004D1*
X1358416Y465234D1*
X1364120Y462382D1*
X1375594D1*
X1381364Y465234D1*
X1387068Y471004D1*
X1389920Y476708D1*
X1392838Y485330D1*
Y499656D1*
X1389920Y508278D1*
X1387068Y514048D1*
X1381364Y519818D1*
X1375594Y522603D1*
X1364120D1*
X1372742Y473856D2*
X1389920Y456612D1*
X1414283Y508211D2*
Y511063D1*
X1417135Y516833D1*
X1419987Y519685D1*
X1425757Y522537D1*
X1437231D1*
X1442935Y519685D1*
X1445787Y516833D1*
X1448705Y511063D1*
Y505359D1*
X1445787Y499589D1*
X1440083Y491033D1*
X1411365Y462315D1*
X1451557D1*
X2869384Y929098D2*
X2863681Y934869D1*
X2855059Y937720D1*
X2843585D1*
X2834963Y934869D1*
X2829192Y929098D1*
Y923395D1*
X2832111Y917624D1*
X2834963Y914773D1*
X2840666Y911921D1*
X2857910Y906150D1*
X2863681Y903299D1*
X2866532Y900380D1*
X2869384Y894677D1*
Y886054D1*
X2863681Y880351D1*
X2855059Y877432D1*
X2843585D1*
X2834963Y880351D1*
X2829192Y886054D1*
X2887911Y926180D2*
X2893682Y929098D1*
X2902304Y937654D1*
Y877432D1*
X2856484Y1304098D2*
X2850781Y1309869D1*
X2842159Y1312720D1*
X2830685D1*
X2822063Y1309869D1*
X2816292Y1304098D1*
Y1298395D1*
X2819211Y1292624D1*
X2822063Y1289773D1*
X2827766Y1286921D1*
X2845011Y1281150D1*
X2850781Y1278299D1*
X2853633Y1275380D1*
X2856484Y1269677D1*
Y1261054D1*
X2850781Y1255351D1*
X2842159Y1252432D1*
X2830685D1*
X2822063Y1255351D1*
X2816292Y1261054D1*
X2877930Y1298328D2*
Y1301180D1*
X2880782Y1306950D1*
X2883634Y1309802D1*
X2889404Y1312654D1*
X2900878D1*
X2906582Y1309802D1*
X2909433Y1306950D1*
X2912352Y1301180D1*
Y1295476D1*
X2909433Y1289706D1*
X2903730Y1281150D1*
X2875012Y1252432D1*
X2915204D1*
X705466Y1248547D2*
Y1205503D1*
X708318Y1196881D1*
X714088Y1191177D1*
X722710Y1188259D1*
X728414D1*
X737036Y1191177D1*
X742806Y1196881D1*
X745658Y1205503D1*
Y1248547D1*
X767103Y1234155D2*
Y1237007D1*
X769955Y1242777D1*
X772807Y1245629D1*
X778577Y1248481D1*
X790051D1*
X795755Y1245629D1*
X798607Y1242777D1*
X801525Y1237007D1*
Y1231303D1*
X798607Y1225533D1*
X792903Y1216977D1*
X764185Y1188259D1*
X804377D1*
X2269245Y567051D2*
Y524007D1*
X2272097Y515385D1*
X2277867Y509681D1*
X2286489Y506763D1*
X2292193D1*
X2300815Y509681D1*
X2306585Y515385D1*
X2309437Y524007D1*
Y567051D1*
X2333734Y566985D2*
X2365238D1*
X2348060Y544037D1*
X2356682D1*
X2362386Y541185D1*
X2365238Y538333D1*
X2368156Y529711D1*
Y524007D1*
X2365238Y515385D1*
X2359534Y509615D1*
X2350912Y506763D1*
X2342290D1*
X2333734Y509615D1*
X2330883Y512533D1*
X2327964Y518237D1*
X752953Y1856070D2*
X715613D1*
Y1795782D1*
Y1827351D2*
X738561D1*
X771481Y1856070D2*
Y1795782D1*
X791577D1*
X800199Y1798700D1*
X805969Y1804404D1*
X808821Y1810174D1*
X811673Y1818729D1*
Y1833122D1*
X808821Y1841744D1*
X805969Y1847447D1*
X800199Y1853218D1*
X791577Y1856070D1*
X771481D1*
X873244Y1841744D2*
X870392Y1847447D1*
X864622Y1853218D1*
X858918Y1856070D1*
X847444D1*
X841674Y1853218D1*
X835970Y1847447D1*
X833052Y1841744D1*
X830200Y1833122D1*
Y1818729D1*
X833052Y1810174D1*
X835970Y1804404D1*
X841674Y1798700D1*
X847444Y1795782D1*
X858918D1*
X864622Y1798700D1*
X870392Y1804404D1*
X873244Y1810174D1*
X995988Y1795782D2*
Y1856070D1*
X973040Y1795782D1*
X950092Y1856070D1*
Y1795782D1*
X1014515Y1856070D2*
Y1795782D1*
X1043233Y1835974D2*
X1014515Y1807255D1*
X1025989Y1818729D2*
X1046085Y1795782D1*
X1067464Y1801552D2*
X1064612Y1798633D1*
X1067464Y1795782D1*
X1070382Y1798633D1*
X1067464Y1801552D1*
X1091827Y1841677D2*
Y1844529D1*
X1094679Y1850299D1*
X1097531Y1853151D1*
X1103301Y1856003D1*
X1114775D1*
X1120479Y1853151D1*
X1123331Y1850299D1*
X1126249Y1844529D1*
Y1838825D1*
X1123331Y1833055D1*
X1117627Y1824500D1*
X1088909Y1795782D1*
X1129101D1*
M02*
